<?xml version="1.0"?><svg width="650" height="900" xmlns="http://www.w3.org/2000/svg">
 <title>Christmas Ornaments</title>
 <metadata id="metadata4067">image/svg+xmlChristmasSheikh TuhinChristmasBaubleHolly BushColour</metadata>
 <g>
  <title>Layer 1</title>
  <g id="svg_3">
   <rect width="6.060915" height="552.174357" x="128.30943" y="0.000007" id="rect2995" stroke-dashoffset="0" stroke-miterlimit="4" fill="#007f3f"/>
   <g id="g3116">
    <g id="g3111">
     <path d="m262.659668,752.204956c0.02002,72.540039 -58.779739,131.356079 -131.319824,131.356079c-72.540108,0 -131.339844,-58.81604 -131.319824,-131.356079c-0.02002,-72.5401 58.779716,-131.356079 131.319824,-131.356079c72.540085,0 131.339844,58.815979 131.319824,131.356079z" id="path2987" stroke-dashoffset="0" stroke-miterlimit="4" fill="#007f3f"/>
     <path d="m131.339966,603.054016c-15.598999,0 -30.554077,2.720825 -44.437622,7.71875l0,14.15625c13.88208,-4.997314 28.840332,-7.71875 44.437622,-7.71875c15.597168,0 30.555542,2.721436 44.437378,7.71875l0,-14.15625c-13.883301,-4.997925 -28.838501,-7.71875 -44.437378,-7.71875z" id="path2989" stroke-dashoffset="0" stroke-miterlimit="4" fill="#007f3f"/>
     <path d="m131.355469,555.596375c-15.377075,0 -27.875,12.466614 -27.875,27.84375c0,6.831665 2.476189,13.089844 6.5625,17.9375c6.935669,-1.133179 14.055054,-1.71875 21.3125,-1.71875c7.251465,0 14.351074,0.58728 21.28125,1.71875c4.086304,-4.847778 6.562622,-11.105835 6.562622,-17.9375c0,-15.377136 -12.466675,-27.84375 -27.843872,-27.84375z" id="path2991" stroke-dashoffset="0" stroke-miterlimit="4" fill="#007f3f"/>
    </g>
    <path d="m225.380188,720.501282c0,36.917786 -27.66626,66.845276 -61.794434,66.845276c-34.128113,0 -61.794403,-29.92749 -61.794403,-66.845276c0,-36.91748 27.66629,-66.845154 61.794403,-66.845154c34.128174,0 61.794434,29.927673 61.794434,66.845154z" id="path2993" stroke-dashoffset="0" stroke-miterlimit="4" fill="#007f3f"/>
   </g>
  </g>
  <g id="g3136">
   <g id="g2938">
    <g id="g2933">
     <path d="m639.97998,528.280151c0.02002,72.5401 -58.779724,131.356018 -131.319824,131.356018c-72.5401,0 -131.339813,-58.815918 -131.319824,-131.356018c-0.02002,-72.5401 58.779724,-131.356079 131.319824,-131.356079c72.5401,0 131.339844,58.815979 131.319824,131.356079z" id="path2947" stroke-dashoffset="0" stroke-miterlimit="4" fill="#007f3f"/>
     <path d="m508.660248,379.129272c-15.59903,0 -30.554077,2.720703 -44.437561,7.71875l0,14.15625c13.882019,-4.997314 28.84024,-7.71875 44.437561,-7.71875c15.597076,0 30.555511,2.721436 44.437469,7.71875l0,-14.15625c-13.883301,-4.998047 -28.838684,-7.71875 -44.437469,-7.71875z" id="path2949" stroke-dashoffset="0" stroke-miterlimit="4" fill="#007f3f"/>
     <path d="m508.675751,331.671509c-15.377106,0 -27.875,12.466675 -27.875,27.84375c0,6.831787 2.476227,13.089844 6.5625,17.9375c6.935699,-1.133179 14.055054,-1.71875 21.3125,-1.71875c7.251495,0 14.350983,0.587402 21.281158,1.71875c4.086365,-4.847656 6.562683,-11.105713 6.562683,-17.9375c0,-15.377075 -12.466675,-27.84375 -27.843842,-27.84375z" id="path2965" stroke-dashoffset="0" stroke-miterlimit="4" fill="#007f3f"/>
    </g>
    <path d="m602.7005,496.576538c0,36.917786 -27.66626,66.845215 -61.794434,66.845215c-34.128143,0 -61.794403,-29.927429 -61.794403,-66.845215c0,-36.91748 27.66626,-66.845215 61.794403,-66.845215c34.128174,0 61.794434,29.927734 61.794434,66.845215z" id="path2976" stroke-dashoffset="0" stroke-miterlimit="4" fill="#007f3f"/>
   </g>
   <rect width="6.060915" height="326.24954" x="505.629689" y="-0.000001" id="rect2949" stroke-dashoffset="0" stroke-miterlimit="4" fill="#007f3f"/>
  </g>
  <g id="svg_4">
   <rect width="6.060915" height="43.437509" x="314.337921" y="0.000006" id="rect2975" stroke-dashoffset="0" stroke-miterlimit="4" fill="#007f7f"/>
   <g id="g3045">
    <g id="g3040">
     <path d="m451.319824,242.83699c0.02002,72.540085 -58.779724,131.356094 -131.319824,131.356094c-72.540115,0 -131.339844,-58.81601 -131.319824,-131.356094c-0.02002,-72.5401 58.779709,-131.356079 131.319824,-131.356079c72.5401,0 131.339844,58.815979 131.319824,131.356079z" id="path2966" stroke-dashoffset="0" stroke-miterlimit="4" fill="#007f7f"/>
     <path d="m320.000183,93.68605c-15.59903,0 -30.554077,2.720825 -44.437622,7.71875l0,14.15625c13.881958,-4.997314 28.840332,-7.71875 44.437622,-7.71875c15.597046,0 30.55542,2.721436 44.437347,7.71875l0,-14.15625c-13.88327,-4.997925 -28.838593,-7.71875 -44.437347,-7.71875z" id="path2969" stroke-dashoffset="0" stroke-miterlimit="4" fill="#007f7f"/>
     <path d="m320.015686,46.228256c-15.377075,0 -27.875,12.466705 -27.875,27.843903c0,6.831665 2.476196,13.089844 6.5625,17.9375c6.935669,-1.13324 14.054932,-1.71875 21.3125,-1.71875c7.251465,0 14.350952,0.587341 21.281128,1.71875c4.086273,-4.847656 6.562622,-11.105774 6.562622,-17.9375c0,-15.377197 -12.466553,-27.843903 -27.84375,-27.843903z" id="path2971" stroke-dashoffset="0" stroke-miterlimit="4" fill="#007f7f"/>
    </g>
    <path d="m414.040344,211.133316c0,36.917786 -27.66626,66.8452 -61.794434,66.8452c-34.128204,0 -61.794434,-29.927414 -61.794434,-66.8452c0,-36.91748 27.666229,-66.845154 61.794434,-66.845154c34.128174,0 61.794434,29.927673 61.794434,66.845154z" id="path2973" stroke-dashoffset="0" stroke-miterlimit="4" fill="#007f7f"/>
   </g>
  </g>
 </g>
</svg>